<?xml version="1.0" encoding="UTF-8" standalone="no"?>
<svg width="103px" height="95px" viewBox="0 0 103 95" version="1.1" xmlns="http://www.w3.org/2000/svg" xmlns:xlink="http://www.w3.org/1999/xlink">
    <!-- Generator: Sketch 39.1 (31720) - http://www.bohemiancoding.com/sketch -->
    <title>gb</title>
    <desc>Created with Sketch.</desc>
    <defs></defs>
    <g id="Page-1" stroke="none" stroke-width="1" fill="none" fill-rule="evenodd">
        <g id="logo" transform="translate(-10.000000, -10.000000)" fill="#19BA7F">
            <g id="gb" transform="translate(10.000000, 10.000000)">
                <path d="M68.9206861,66.3752605 L63.3020972,68.7417162 C58.716976,70.6728926 55.0000008,68.2111617 55.0000007,63.2393953 L55,16.2535058 C54.9999999,11.8310439 58.3228275,6.89139738 62.4071629,5.22644003 L74.2056238,0.416860956 C74.7120205,0.210431068 75.5735521,0.0156178237 76.1207512,0.0266355558 C76.1207512,0.0266355558 79.3728832,-0.507315993 80.9112003,3.20614582 C82.4495174,6.91960763 79.3462945,9.28765661 79.3462945,9.28765661 C78.9488722,9.66892369 78.2187024,10.156832 77.7019652,10.3833254 L69.1391927,14.1365132 C67.1160598,15.0232818 65.4759865,17.5337885 65.4759864,19.7351896 L65.4759864,28.354295 C69.3585079,25.0874965 74.3278453,23.1264517 79.7443063,23.1264517 C92.1678546,23.1264517 102.23913,33.4433125 102.23913,46.1698053 C102.23913,58.8962981 92.1678546,69.2131589 79.7443063,69.2131589 C75.820774,69.2131589 72.1318541,68.1841699 68.9206861,66.3752605 Z M79.2512896,59.3453963 C86.4309913,59.3453963 92.2512896,53.5251295 92.2512896,46.3454666 C92.2512896,39.1658037 86.4309913,33.3455369 79.2512896,33.3455369 C72.0715878,33.3455369 66.2512896,39.1658037 66.2512896,46.3454666 C66.2512896,53.5251295 72.0715878,59.3453963 79.2512896,59.3453963 Z" id="Combined-Shape"></path>
                <path d="M36.4673162,65.7737746 C32.7276118,68.3204552 28.2096177,69.8090951 23.3439331,69.8090951 C10.4514348,69.8090951 0,59.3576603 0,46.465162 C0,33.5726638 10.4514348,23.1212289 23.3439331,23.1212289 C27.256077,23.1212289 30.9434529,24.0835753 34.1822474,25.7844547 L40.6606416,23.4068396 C44.2938405,22.0734307 47.2391301,24.1250153 47.2391302,27.9918397 L47.2391304,78.392851 C47.2391304,82.8130184 43.8970496,87.7026604 39.7908605,89.3077316 L28.4615064,93.736271 C27.9512967,93.9357072 27.089346,94.1012146 26.5440613,94.0680367 C26.5440613,94.0680367 23.1446768,94.3931122 21.659634,90.9565277 C20.1745913,87.5199432 22.51436,85.3911542 22.51436,85.3911542 C22.8624743,84.9739159 23.558006,84.4602216 24.0603957,84.2469601 L32.7915795,80.5406252 C34.8216328,79.6788798 36.4673162,77.9881785 36.4673162,75.7717479 C36.4673162,75.7717479 36.4673162,82.9487471 36.4673162,65.7737746 Z M23.3375732,59.4588022 C30.517275,59.4588022 36.3375732,53.6385039 36.3375732,46.4588022 C36.3375732,39.2791004 30.517275,33.4588022 23.3375732,33.4588022 C16.1578715,33.4588022 10.3375732,39.2791004 10.3375732,46.4588022 C10.3375732,53.6385039 16.1578715,59.4588022 23.3375732,59.4588022 Z" id="Combined-Shape"></path>
            </g>
        </g>
    </g>
</svg>