<?xml version="1.0" encoding="UTF-8" standalone="no"?>
<svg width="100px" height="100px" viewBox="0 0 100 100" version="1.1" xmlns="http://www.w3.org/2000/svg" xmlns:xlink="http://www.w3.org/1999/xlink">
    <!-- Generator: Sketch 39.1 (31720) - http://www.bohemiancoding.com/sketch -->
    <title>logo</title>
    <desc>Created with Sketch.</desc>
    <defs>
        <path d="M50,99 C77.0619527,99 99,77.0619527 99,50 C99,22.9380473 77.0619527,1 50,1 C22.9380473,1 1,22.9380473 1,50 C1,77.0619527 22.9380473,99 50,99 Z" id="path-1"></path>
        <mask id="mask-2" maskContentUnits="userSpaceOnUse" maskUnits="objectBoundingBox" x="0" y="0" width="98" height="98" fill="white">
            <use xlink:href="#path-1"></use>
        </mask>
    </defs>
    <g id="Page-1" stroke="none" stroke-width="1" fill="none" fill-rule="evenodd">
        <g id="logo">
            <use id="Oval-4" stroke="#19BA7F" mask="url(#mask-2)" stroke-width="10" xlink:href="#path-1"></use>
            <g id="gb" transform="translate(23.000000, 26.000000)" fill="#19BA7F">
                <g id="Page-1">
                    <g>
                        <g id="logo">
                            <g id="gb">
                                <path d="M35.4640424,33.5369737 L32.5729238,34.7326566 C30.2135896,35.7084089 28.3009713,34.464587 28.3009712,31.9525366 L28.3009709,8.21229767 C28.3009708,5.9777906 30.0107753,3.4819692 32.1124236,2.64072759 L38.1834763,0.210624483 C38.4440494,0.106323066 38.8873618,0.00789111092 39.1689302,0.013457965 C39.1689302,0.013457965 40.8423574,-0.256328081 41.6339186,1.61994736 C42.4254798,3.4962228 40.8286758,4.69271071 40.8286758,4.69271071 C40.624177,4.88535092 40.2484585,5.13187301 39.9825646,5.24631178 L35.5764778,7.1426593 C34.5354482,7.5907108 33.691527,8.85917735 33.691527,9.97146422 L33.691527,14.3263806 C35.6893293,12.6757877 38.246367,11.684944 41.033478,11.684944 C47.4261776,11.684944 52.6084844,16.8976737 52.6084844,23.3279016 C52.6084844,29.7581296 47.4261776,34.9708592 41.033478,34.9708592 C39.014573,34.9708592 37.1163909,34.450949 35.4640424,33.5369737 L35.4640424,33.5369737 Z M40.7797898,29.9850423 C44.4741994,29.9850423 47.4691102,27.044276 47.4691102,23.4166568 C47.4691102,19.7890377 44.4741994,16.8482713 40.7797898,16.8482713 C37.0853801,16.8482713 34.0904694,19.7890377 34.0904694,23.4166568 C34.0904694,27.044276 37.0853801,29.9850423 40.7797898,29.9850423 L40.7797898,29.9850423 Z" id="Combined-Shape"></path>
                                <path d="M18.7647355,33.2330651 C16.8404216,34.5198089 14.5156285,35.2719638 12.0119267,35.2719638 C5.37792276,35.2719638 0,29.9912389 0,23.4771345 C0,16.9630301 5.37792276,11.6823051 12.0119267,11.6823051 C14.0249717,11.6823051 15.9223593,12.1685433 17.5889234,13.027935 L20.9224661,11.8266137 C22.7919762,11.1528913 24.3075135,12.1894814 24.3075136,14.1432453 L24.3075137,39.6090195 C24.3075137,41.8423672 22.5878022,44.3129231 20.4749088,45.1239065 L14.6452412,47.3614843 C14.3827061,47.4622521 13.939178,47.5458769 13.6585946,47.5291133 C13.6585946,47.5291133 11.9093968,47.693362 11.1452486,45.9569824 C10.3811004,44.2206029 11.585059,43.1450042 11.585059,43.1450042 C11.7641858,42.9341891 12.1220808,42.6746383 12.380592,42.5668851 L16.873337,40.6942106 C17.9179276,40.2588024 18.7647355,39.4045533 18.7647355,38.2846726 C18.7647355,38.2846726 18.7647355,41.9109459 18.7647355,33.2330651 L18.7647355,33.2330651 Z M12.0086542,30.0423422 C15.7030638,30.0423422 18.6979746,27.1015599 18.6979746,23.4739211 C18.6979746,19.8462823 15.7030638,16.9055001 12.0086542,16.9055001 C8.31424456,16.9055001 5.31933378,19.8462823 5.31933378,23.4739211 C5.31933378,27.1015599 8.31424456,30.0423422 12.0086542,30.0423422 L12.0086542,30.0423422 Z" id="Combined-Shape"></path>
                            </g>
                        </g>
                    </g>
                </g>
            </g>
        </g>
    </g>
</svg>