<?xml version="1.0" encoding="UTF-8" standalone="no"?>
<svg width="123px" height="114px" viewBox="0 0 123 114" version="1.1" xmlns="http://www.w3.org/2000/svg" xmlns:xlink="http://www.w3.org/1999/xlink">
    <!-- Generator: Sketch 39.1 (31720) - http://www.bohemiancoding.com/sketch -->
    <title>logo</title>
    <desc>Created with Sketch.</desc>
    <defs></defs>
    <g id="Page-1" stroke="none" stroke-width="1" fill="none" fill-rule="evenodd">
        <g id="logo" fill="#19BA7F">
            <path d="M78.9206861,76.3752605 L73.3020972,78.7417162 C68.716976,80.6728926 65.0000008,78.2111617 65.0000007,73.2393953 L65,26.2535058 C64.9999999,21.8310439 68.3228275,16.8913974 72.4071629,15.22644 L84.2056238,10.416861 C84.7120205,10.2104311 85.5735521,10.0156178 86.1207512,10.0266356 C86.1207512,10.0266356 89.3728832,9.49268401 90.9112003,13.2061458 C92.4495174,16.9196076 89.3462945,19.2876566 89.3462945,19.2876566 C88.9488722,19.6689237 88.2187024,20.156832 87.7019652,20.3833254 L79.1391927,24.1365132 C77.1160598,25.0232818 75.4759865,27.5337885 75.4759864,29.7351896 L75.4759864,38.354295 C79.3585079,35.0874965 84.3278453,33.1264517 89.7443063,33.1264517 C102.167855,33.1264517 112.23913,43.4433125 112.23913,56.1698053 C112.23913,68.8962981 102.167855,79.2131589 89.7443063,79.2131589 C85.820774,79.2131589 82.1318541,78.1841699 78.9206861,76.3752605 Z M89.2512896,69.3453963 C96.4309913,69.3453963 102.25129,63.5251295 102.25129,56.3454666 C102.25129,49.1658037 96.4309913,43.3455369 89.2512896,43.3455369 C82.0715878,43.3455369 76.2512896,49.1658037 76.2512896,56.3454666 C76.2512896,63.5251295 82.0715878,69.3453963 89.2512896,69.3453963 Z" id="Combined-Shape"></path>
            <path d="M46.4673162,75.7737746 C42.7276118,78.3204552 38.2096177,79.8090951 33.3439331,79.8090951 C20.4514348,79.8090951 10,69.3576603 10,56.465162 C10,43.5726638 20.4514348,33.1212289 33.3439331,33.1212289 C37.256077,33.1212289 40.9434529,34.0835753 44.1822474,35.7844547 L50.6606416,33.4068396 C54.2938405,32.0734307 57.2391301,34.1250153 57.2391302,37.9918397 L57.2391304,88.392851 C57.2391304,92.8130184 53.8970496,97.7026604 49.7908605,99.3077316 L38.4615064,103.736271 C37.9512967,103.935707 37.089346,104.101215 36.5440613,104.068037 C36.5440613,104.068037 33.1446768,104.393112 31.659634,100.956528 C30.1745913,97.5199432 32.51436,95.3911542 32.51436,95.3911542 C32.8624743,94.9739159 33.558006,94.4602216 34.0603957,94.2469601 L42.7915795,90.5406252 C44.8216328,89.6788798 46.4673162,87.9881785 46.4673162,85.7717479 C46.4673162,85.7717479 46.4673162,92.9487471 46.4673162,75.7737746 Z M33.3375732,69.4588022 C40.517275,69.4588022 46.3375732,63.6385039 46.3375732,56.4588022 C46.3375732,49.2791004 40.517275,43.4588022 33.3375732,43.4588022 C26.1578715,43.4588022 20.3375732,49.2791004 20.3375732,56.4588022 C20.3375732,63.6385039 26.1578715,69.4588022 33.3375732,69.4588022 Z" id="Combined-Shape"></path>
        </g>
    </g>
</svg>